<?xml version="1.0" encoding="utf-8"?>
<!-- Generator: Adobe Illustrator 22.0.1, SVG Export Plug-In . SVG Version: 6.00 Build 0)  -->
<svg version="1.1" id="레이어_1" xmlns="http://www.w3.org/2000/svg" xmlns:xlink="http://www.w3.org/1999/xlink" x="0px"
	 y="0px" viewBox="0 0 23.9 22.9" style="enable-background:new 0 0 23.9 22.9;" xml:space="preserve">
<style type="text/css">
	.st0{fill:#929194;}
</style>
<path class="st0" d="M23.9,10c0-0.3-0.2-0.5-0.4-0.6l-1.1-0.3C22.1,9.1,22,9,21.9,8.8c-0.1-0.2,0-0.4,0.1-0.6l0.8-0.9
	c0.2-0.2,0.2-0.5,0-0.7c-1.2-1.4-3.1-2-5-1.4c-0.4,0.1-0.9,0.4-1.4,0.7c0.1-0.6,0.2-1.1,0.2-1.6c0-1.9-1.2-3.6-2.9-4.3
	c-0.2-0.1-0.5,0-0.7,0.2l-0.6,1c-0.1,0.2-0.3,0.3-0.5,0.3c-0.2,0-0.4-0.1-0.5-0.3l-0.6-1C10.7,0,10.4-0.1,10.2,0
	C8.5,0.7,7.3,2.4,7.3,4.3c0,0.5,0.1,1,0.2,1.6C7,5.6,6.5,5.4,6.1,5.2c-1.8-0.6-3.8,0-5,1.4c-0.2,0.2-0.2,0.5,0,0.7l0.8,0.9
	C2,8.4,2.1,8.6,2,8.8c0,0.2-0.2,0.3-0.4,0.4L0.4,9.5C0.2,9.5,0,9.8,0,10c0.1,1.8,1.4,3.5,3.2,4c0.4,0.1,1,0.2,1.5,0.3
	c-0.4,0.4-0.8,0.8-1.1,1.1c-1.1,1.6-1.2,3.6-0.2,5.2c0.1,0.2,0.4,0.3,0.7,0.2l1.1-0.4c0.2-0.1,0.4-0.1,0.6,0C6,20.6,6,20.8,6,21.1
	l-0.1,1.2c0,0.3,0.2,0.5,0.4,0.6c1.8,0.4,3.7-0.2,4.8-1.8c0.3-0.4,0.5-0.8,0.8-1.4c0.2,0.5,0.5,1,0.8,1.4c1.1,1.6,3.1,2.2,4.8,1.8
	c0.3-0.1,0.4-0.3,0.4-0.6l-0.1-1.2c0-0.3,0.1-0.4,0.2-0.5c0.1-0.1,0.3-0.1,0.6,0l1.1,0.4c0.2,0.1,0.5,0,0.7-0.2
	c1-1.6,0.9-3.6-0.2-5.2c-0.3-0.4-0.6-0.8-1.1-1.1c0.6-0.1,1.1-0.2,1.5-0.3C22.6,13.5,23.8,11.8,23.9,10z M14.1,12.8
	c0.3-0.2,0.7-0.3,1.1-0.1c0.4,0.3,0.6,0.8,0.3,1.3c-0.3,0.4-0.8,0.6-1.3,0.3c-0.3-0.2-0.5-0.6-0.4-1l-1.4-0.8v1.6
	c0.4,0.1,0.6,0.5,0.6,0.9c0,0.5-0.4,0.9-0.9,0.9c-0.5,0-0.9-0.4-0.9-0.9c0-0.4,0.3-0.7,0.6-0.9v-1.6l-1.4,0.8c0.1,0.4-0.1,0.8-0.4,1
	c-0.4,0.3-1,0.1-1.3-0.3c-0.3-0.4-0.1-1,0.3-1.3c0.3-0.2,0.8-0.1,1.1,0.1l1.4-0.8L10,11.1c-0.3,0.2-0.7,0.3-1.1,0.1
	C8.5,11,8.3,10.4,8.6,10c0.3-0.4,0.8-0.6,1.3-0.3c0.3,0.2,0.5,0.6,0.4,1l1.4,0.8V9.8c-0.4-0.1-0.6-0.5-0.6-0.9C11.1,8.4,11.5,8,12,8
	c0.5,0,0.9,0.4,0.9,0.9c0,0.4-0.3,0.7-0.6,0.9v1.6l1.4-0.8c-0.1-0.4,0.1-0.8,0.4-1c0.4-0.3,1-0.1,1.3,0.3c0.3,0.4,0.1,1-0.3,1.3
	c-0.3,0.2-0.8,0.1-1.1-0.1l-1.4,0.8L14.1,12.8z"/>
</svg>
